{"glyphs":{":":{"x_min":0,"x_max":308,"ha":308,"o":""},"$":{"x_min":0,"x_max":449,"ha":449,"o":"m 270 -1 q 264 -3 264 -7 l 260 -53 q 259 -60 255 -64 q 251 -68 244 -68 l 138 -68 q 131 -68 128 -64 q 124 -60 125 -53 l 134 -1 q 134 3 130 4 q 79 20 50 60 q 22 100 22 154 q 22 162 24 180 l 28 211 q 29 218 34 222 q 38 226 44 226 l 196 226 q 202 226 206 222 q 209 218 208 211 l 206 189 q 204 173 210 163 q 216 153 228 153 q 241 153 250 164 q 259 175 259 191 q 259 206 244 222 q 230 238 189 271 q 149 304 123 330 q 97 355 78 392 q 59 430 59 478 q 59 487 61 509 q 69 578 111 628 q 153 679 218 698 q 222 699 222 703 l 228 763 q 229 770 233 774 q 237 778 244 778 l 348 778 q 354 778 358 774 q 361 770 360 763 l 351 706 q 351 701 355 700 q 413 685 445 642 q 477 600 477 539 q 477 529 475 509 l 472 487 q 471 480 466 476 q 462 472 456 472 l 305 472 q 299 472 296 476 q 292 480 293 487 l 296 513 q 297 528 290 538 q 284 547 272 547 q 258 547 249 535 q 240 523 240 503 q 240 486 254 468 q 268 450 306 418 q 357 375 384 348 q 411 322 426 290 q 442 259 442 219 q 442 211 440 191 q 430 116 384 66 q 339 15 270 -1 z"},"?":{"x_min":0,"x_max":469,"ha":469,"o":"m 142 251 l 144 264 q 149 303 166 332 q 182 361 202 379 q 221 397 252 419 q 285 443 300 460 q 316 477 316 502 q 316 520 308 530 q 299 539 283 539 q 262 539 248 525 q 235 511 233 488 l 232 484 q 231 470 216 470 l 63 477 q 57 477 53 480 q 49 483 50 488 q 58 553 94 604 q 129 654 185 682 q 241 710 309 710 q 400 710 452 662 q 503 615 503 534 q 503 525 501 503 q 495 458 478 426 q 462 395 441 376 q 420 356 389 334 q 358 311 342 294 q 326 277 323 252 l 323 251 q 322 244 318 240 q 313 236 306 236 l 155 236 q 148 236 144 240 q 141 244 142 251 z m 121 75 q 121 122 151 152 q 181 183 224 183 q 261 183 283 161 q 305 139 305 104 q 305 58 275 26 q 245 -5 201 -5 q 165 -5 143 18 q 121 40 121 75 z"},"<":{"x_min":0,"x_max":423,"ha":423,"o":"m 375 50 l 35 212 q 25 217 26 229 l 43 365 q 44 377 56 382 l 435 544 l 443 546 q 448 546 450 542 q 453 539 452 533 l 434 387 q 432 375 420 370 l 217 300 q 211 297 217 294 l 402 224 q 413 219 411 207 l 394 61 q 392 53 387 50 q 382 46 375 50 z"},"'":{"x_min":0,"x_max":198,"ha":198,"o":"m 64 474 l 73 684 q 75 700 90 700 l 241 700 q 249 700 252 696 q 255 691 254 684 l 210 474 q 206 460 193 460 l 77 460 q 64 460 64 474 z"},"=":{"x_min":0,"x_max":423,"ha":423,"o":""},"a":{"x_min":0,"x_max":446,"ha":446,"o":"m 301 520 l 455 520 q 461 520 464 516 q 468 512 467 505 l 407 15 q 406 8 402 4 q 398 0 391 0 l 238 0 q 231 0 228 4 q 224 8 225 15 l 228 37 q 228 41 226 41 q 224 41 222 38 q 188 -8 130 -8 q 70 -8 43 25 q 16 58 16 121 q 16 145 19 170 l 41 350 q 52 439 90 484 q 127 528 196 528 q 254 528 276 481 q 278 478 280 478 q 282 479 282 483 l 285 505 q 286 512 290 516 q 295 520 301 520 z m 246 185 l 264 335 q 266 349 261 358 q 256 367 246 367 q 236 367 230 358 q 224 349 222 335 l 203 185 q 201 170 206 162 q 210 153 220 153 q 230 153 237 162 q 244 171 246 185 z"},"L":{"x_min":0,"x_max":433,"ha":433,"o":"m 8 15 l 90 685 q 91 692 96 696 q 100 700 106 700 l 260 700 q 266 700 270 696 q 273 692 272 685 l 209 166 q 207 161 213 161 l 403 161 q 410 161 414 157 q 417 153 416 146 l 400 15 q 397 0 383 0 l 20 0 q 14 0 10 4 q 7 8 8 15 z"},"3":{"x_min":0,"x_max":440,"ha":440,"o":"m 489 685 l 472 551 q 470 539 463 532 l 349 423 q 346 421 346 419 q 347 417 350 417 q 390 414 415 381 q 440 348 440 300 q 440 292 438 276 l 426 172 q 420 120 389 79 q 358 38 310 15 q 261 -8 203 -8 q 118 -8 66 36 q 14 79 14 149 q 14 164 15 172 l 21 217 q 22 224 26 228 q 30 232 37 232 l 190 232 q 197 232 200 228 q 204 224 203 217 l 200 190 q 198 174 204 164 q 210 153 222 153 q 235 153 244 163 q 253 173 255 190 l 269 303 q 271 319 264 330 q 258 340 245 340 q 229 340 209 323 q 202 318 198 318 q 194 318 189 323 l 122 406 q 119 411 119 415 q 119 423 125 427 l 247 534 q 249 536 248 538 q 248 540 245 540 l 91 540 q 84 540 80 544 q 77 548 78 555 l 94 685 q 95 692 99 696 q 103 700 110 700 l 476 700 q 483 700 486 696 q 490 692 489 685 z"},";":{"x_min":0,"x_max":250,"ha":250,"o":"m 52 380 q 52 412 69 440 q 86 467 113 484 q 140 500 167 500 q 204 500 230 474 q 257 447 257 408 q 257 360 223 326 q 189 291 141 291 q 101 291 76 316 q 52 342 52 380 z m 1 -96 l 45 145 q 46 152 51 156 q 56 160 62 160 l 194 160 q 210 160 205 143 l 121 -98 q 116 -111 104 -111 l 13 -111 q -2 -111 1 -96 z"},"J":{"x_min":0,"x_max":456,"ha":456,"o":"m 10 162 q 10 172 12 192 l 19 250 q 20 257 24 261 q 29 265 35 265 l 189 265 q 195 265 198 261 q 202 257 201 250 l 194 190 q 192 174 198 164 q 205 153 218 153 q 231 153 241 164 q 251 174 252 190 l 313 685 q 314 692 318 696 q 323 700 329 700 l 483 700 q 489 700 492 696 q 496 692 495 685 l 435 192 q 428 133 396 88 q 363 42 312 17 q 261 -8 198 -8 q 112 -8 61 38 q 10 85 10 162 z"},"V":{"x_min":0,"x_max":505,"ha":505,"o":"m 133 13 l 79 684 q 79 700 95 700 l 262 700 q 276 700 275 686 l 275 327 q 274 324 277 324 q 280 324 281 327 l 365 686 q 368 700 382 700 l 544 700 q 551 700 554 696 q 558 692 555 684 l 335 13 q 331 0 317 0 l 147 0 q 133 0 133 13 z"},"\"":{"x_min":0,"x_max":407,"ha":407,"o":"m 65 474 l 73 684 q 75 700 90 700 l 231 700 q 239 700 242 696 q 245 691 244 684 l 201 474 q 198 460 185 460 l 78 460 q 65 460 65 474 z m 284 474 l 293 684 q 293 700 309 700 l 451 700 q 458 700 461 696 q 464 691 463 684 l 420 474 q 417 460 404 460 l 297 460 q 284 460 284 474 z"},"7":{"x_min":0,"x_max":422,"ha":422,"o":"m 52 17 l 268 533 q 271 539 265 539 l 204 539 q 200 539 198 534 l 195 505 q 194 498 190 494 q 185 490 179 490 l 61 490 q 54 490 50 494 q 47 498 48 505 l 71 685 q 74 700 88 700 l 468 700 q 475 700 478 696 q 482 692 481 685 l 464 548 q 462 536 459 530 l 240 12 q 236 0 222 0 l 62 0 q 54 0 51 4 q 48 9 52 17 z"},"S":{"x_min":0,"x_max":449,"ha":449,"o":"m 22 155 q 22 162 24 180 l 28 211 q 29 218 34 222 q 38 226 44 226 l 196 226 q 202 226 206 222 q 209 218 208 211 l 206 189 q 204 173 210 163 q 216 153 228 153 q 241 153 250 164 q 259 175 259 191 q 259 206 244 222 q 230 238 189 271 q 149 304 123 330 q 97 355 78 392 q 59 430 59 478 q 59 487 61 509 q 72 598 135 653 q 198 708 292 708 q 378 708 428 662 q 477 616 477 538 q 477 529 475 509 l 472 487 q 471 480 466 476 q 462 472 456 472 l 305 472 q 299 472 296 476 q 292 480 293 487 l 296 513 q 297 528 290 538 q 284 547 272 547 q 258 547 249 535 q 240 523 240 503 q 240 486 254 468 q 268 450 306 418 q 357 375 384 348 q 411 322 426 290 q 442 259 442 219 q 442 211 440 191 q 428 100 364 46 q 301 -8 208 -8 q 122 -8 72 36 q 22 81 22 155 z"},"}":{"x_min":0,"x_max":380,"ha":380,"o":"m 4 -164 q -3 -164 -6 -160 q -10 -156 -9 -149 l 7 -18 q 10 -3 24 -3 l 35 -3 q 51 -3 66 14 q 81 31 84 53 l 102 195 q 114 295 177 326 q 182 329 177 332 q 132 358 132 429 q 132 438 134 462 l 151 601 q 154 623 143 640 q 132 657 116 657 l 105 657 q 98 657 94 661 q 91 665 92 672 l 108 803 q 109 810 114 814 q 118 818 125 818 l 225 818 q 281 818 313 788 q 345 759 345 709 q 345 695 344 688 l 320 491 q 319 484 319 471 q 319 411 367 403 q 381 402 379 388 l 365 270 q 364 257 349 255 q 291 246 280 166 l 256 -34 q 248 -93 207 -128 q 166 -164 104 -164 z"},"Z":{"x_min":0,"x_max":411,"ha":411,"o":"m -6 15 l 11 151 q 13 162 18 170 l 249 533 q 252 539 246 539 l 73 539 q 66 539 62 543 q 59 547 60 554 l 76 685 q 77 692 82 696 q 86 700 93 700 l 450 700 q 456 700 460 696 q 463 692 462 685 l 446 549 q 445 542 439 530 l 206 167 q 201 161 209 161 l 384 161 q 390 161 394 157 q 397 153 396 146 l 380 15 q 379 8 374 4 q 370 0 364 0 l 7 0 q 0 0 -4 4 q -7 8 -6 15 z"},"x":{"x_min":0,"x_max":468,"ha":468,"o":"m -7 9 q -7 14 -4 18 l 131 257 q 133 260 132 263 l 56 502 q 55 504 55 508 q 55 520 69 520 l 236 520 q 248 520 251 508 l 265 439 q 266 436 268 436 q 270 436 271 439 l 303 508 q 308 520 321 520 l 488 520 q 499 520 499 511 q 499 508 496 502 l 361 263 l 360 257 l 437 18 q 438 16 438 12 q 438 0 424 0 l 257 0 q 245 0 242 12 l 228 85 q 227 89 225 89 q 223 89 222 85 l 190 12 q 185 0 172 0 l 5 0 q -7 0 -7 9 z"},")":{"x_min":0,"x_max":360,"ha":360,"o":"m 308 747 q 386 615 386 445 q 386 391 379 336 q 349 94 207 -74 q 200 -83 189 -83 l 38 -83 q 33 -83 30 -80 q 27 -78 27 -74 l 29 -66 q 84 24 122 118 q 160 211 175 336 q 182 392 182 448 q 182 532 168 598 q 154 665 129 739 q 128 741 128 745 q 128 756 141 756 l 292 756 q 302 756 308 747 z"},"&":{"x_min":0,"x_max":624,"ha":624,"o":"m 581 10 q 581 6 577 3 q 573 0 567 0 l 402 0 q 391 0 385 9 l 373 26 q 371 29 366 27 q 291 -10 203 -10 q 116 -10 67 29 q 18 68 18 144 q 18 154 20 176 q 28 238 58 282 q 87 325 134 358 q 139 361 136 365 q 109 407 99 434 q 89 460 89 485 q 89 493 91 511 q 101 599 164 654 q 227 708 319 708 q 406 708 459 660 q 512 612 512 533 q 512 460 477 410 q 442 361 382 320 q 378 317 379 314 l 382 311 l 411 266 q 415 263 418 266 q 455 308 470 336 q 474 346 482 346 q 485 346 490 343 l 595 277 q 602 272 602 266 q 602 262 599 257 q 558 190 507 133 q 505 131 506 126 l 578 18 q 581 14 581 10 z m 271 494 q 271 486 274 478 q 278 469 287 453 q 290 449 294 452 q 328 481 328 508 q 328 522 322 530 q 315 538 304 538 q 289 538 280 525 q 271 512 271 494 z m 273 155 q 280 157 276 162 l 270 170 q 248 202 230 225 q 229 230 224 225 q 205 208 205 188 q 205 173 214 161 q 223 149 243 149 l 252 150 q 259 151 273 155 z"},"_":{"x_min":0,"x_max":437,"ha":437,"o":"m -10 15 l 4 125 q 5 132 9 136 q 13 140 20 140 l 413 140 q 420 140 424 136 q 427 132 426 125 l 412 15 q 411 8 406 4 q 402 0 396 0 l 3 0 q -4 0 -8 4 q -11 8 -10 15 z"},"v":{"x_min":0,"x_max":460,"ha":460,"o":"m 108 13 l 54 503 l 54 505 q 54 512 58 516 q 62 520 69 520 l 237 520 q 250 520 249 506 l 242 283 q 243 282 245 282 q 247 282 248 283 l 296 506 q 299 520 312 520 l 480 518 q 487 518 490 514 q 492 509 490 501 l 316 13 q 311 0 299 0 l 122 0 q 110 0 108 13 z"},"O":{"x_min":0,"x_max":469,"ha":469,"o":"m 23 172 q 23 182 25 206 l 61 494 q 73 592 138 650 q 204 708 302 708 q 390 708 442 660 q 493 611 493 528 q 493 518 491 494 l 456 206 q 444 108 378 50 q 312 -8 214 -8 q 125 -8 74 40 q 23 89 23 172 z m 273 198 l 310 502 q 312 523 305 535 q 298 547 283 547 q 267 547 256 535 q 246 523 244 502 l 207 198 q 206 194 206 187 q 206 171 214 162 q 221 153 234 153 q 249 153 260 165 q 270 177 273 198 z"},"(":{"x_min":0,"x_max":360,"ha":360,"o":"m 96 -74 q 18 58 18 228 q 18 282 25 337 q 55 580 196 747 q 205 756 215 756 l 365 756 q 377 756 377 747 q 377 744 374 739 q 319 647 282 554 q 244 461 229 337 q 222 280 222 223 q 222 139 236 72 q 251 4 275 -66 q 276 -68 276 -72 q 276 -83 262 -83 l 112 -83 q 102 -83 96 -74 z"},"C":{"x_min":0,"x_max":462,"ha":462,"o":"m 23 171 q 23 181 25 205 l 61 497 q 73 594 138 651 q 203 708 299 708 q 386 708 437 660 q 488 613 488 530 q 488 521 486 497 l 485 492 q 484 485 480 480 q 475 476 469 476 l 315 471 q 300 471 302 485 l 305 510 q 307 527 300 537 q 293 547 280 547 q 266 547 256 537 q 247 527 245 510 l 206 189 q 204 173 210 163 q 217 153 231 153 q 245 153 254 162 q 264 172 266 189 l 269 216 q 270 223 274 226 q 279 230 285 230 l 438 225 q 445 225 448 220 q 452 216 451 209 l 450 205 q 438 108 372 50 q 307 -8 211 -8 q 124 -8 74 40 q 23 88 23 171 z"},"W":{"x_min":0,"x_max":698,"ha":698,"o":"m 129 13 l 79 684 q 79 700 95 700 l 253 700 q 267 700 267 686 l 262 376 q 261 373 264 373 q 267 373 267 376 l 341 686 q 344 700 359 700 l 477 700 q 491 700 491 686 l 494 376 q 494 374 496 374 q 499 373 499 376 l 566 686 q 570 700 583 700 l 737 700 q 754 700 748 684 l 542 13 q 538 0 524 0 l 390 0 q 376 0 376 14 l 374 340 q 375 343 372 342 q 370 342 369 339 l 296 14 q 292 0 278 0 l 144 0 q 130 0 129 13 z"},"A":{"x_min":0,"x_max":515,"ha":515,"o":"m 298 14 l 296 90 q 297 92 295 94 q 293 95 291 95 l 204 95 q 199 95 197 90 l 178 14 q 175 0 161 0 l 9 0 q -6 0 -2 16 l 218 687 q 222 700 236 700 l 413 700 q 427 700 428 687 l 483 16 l 483 14 q 483 0 468 0 l 311 0 q 297 0 298 14 z m 241 239 l 288 239 q 291 239 293 244 l 289 429 q 289 433 286 432 q 284 432 284 429 l 238 244 q 236 239 241 239 z"},"f":{"x_min":0,"x_max":302,"ha":302,"o":"m 333 505 l 320 405 q 319 398 315 394 q 311 390 304 390 l 267 390 q 262 390 262 385 l 216 15 q 215 8 211 4 q 207 0 200 0 l 47 0 q 40 0 36 4 q 33 8 34 15 l 79 385 q 81 390 75 390 l 55 390 q 48 390 44 394 q 41 398 42 405 l 54 505 q 55 512 60 516 q 64 520 71 520 l 91 520 q 96 520 96 525 l 100 556 q 110 637 158 669 q 206 701 296 701 q 322 701 336 700 q 343 700 341 685 l 329 590 q 327 575 321 575 q 304 573 294 563 q 283 553 281 539 l 279 525 q 277 520 283 520 l 320 520 q 327 520 330 516 q 334 512 333 505 z"},"Q":{"x_min":0,"x_max":459,"ha":459,"o":"m 482 521 q 482 509 480 485 l 446 215 q 438 144 401 90 q 364 37 306 12 q 303 10 301 6 l 292 -72 q 291 -79 286 -83 q 282 -87 275 -87 l 122 -87 q 115 -87 112 -83 q 108 -79 109 -72 l 119 6 q 119 10 116 12 q 72 34 48 78 q 24 121 24 180 q 24 191 26 215 l 60 485 q 68 551 100 602 q 132 652 183 680 q 234 708 296 708 q 383 708 432 658 q 482 607 482 521 z m 206 195 q 204 176 210 164 q 216 153 228 153 q 241 153 250 164 q 260 176 262 195 l 300 505 q 302 524 296 536 q 290 547 277 547 q 264 547 255 536 q 246 524 244 505 z"},"w":{"x_min":0,"x_max":633,"ha":633,"o":"m 98 13 l 54 504 q 54 520 69 520 l 214 520 q 228 520 228 506 l 223 280 q 222 279 225 279 q 228 279 228 280 l 280 506 q 284 520 298 520 l 427 520 q 441 520 440 506 l 439 280 q 439 278 441 278 q 443 278 444 280 l 495 506 q 498 520 511 520 l 653 518 q 668 518 664 502 l 502 13 q 497 0 484 0 l 336 0 q 322 0 322 14 l 320 190 q 321 193 318 193 q 315 193 314 190 l 271 14 q 268 0 254 0 l 113 0 q 100 0 98 13 z"},"-":{"x_min":0,"x_max":333,"ha":333,"o":"m 25 220 l 41 350 q 42 357 46 361 q 51 365 57 365 l 326 365 q 333 365 336 361 q 340 357 339 350 l 323 220 q 322 213 318 209 q 313 205 306 205 l 38 205 q 31 205 28 209 q 24 213 25 220 z"},"E":{"x_min":0,"x_max":431,"ha":431,"o":"m 445 539 l 259 539 q 254 539 254 534 l 242 436 q 240 431 246 431 l 343 431 q 350 431 354 427 q 357 423 356 416 l 340 285 q 337 270 323 270 l 226 270 q 221 270 221 265 l 209 166 q 207 161 213 161 l 399 161 q 406 161 410 157 q 413 153 412 146 l 396 15 q 395 8 390 4 q 386 0 379 0 l 20 0 q 14 0 10 4 q 7 8 8 15 l 90 685 q 91 692 96 696 q 100 700 106 700 l 465 700 q 472 700 476 696 q 479 692 478 685 l 462 554 q 461 547 456 543 q 452 539 445 539 z"},"s":{"x_min":0,"x_max":425,"ha":425,"o":"m 10 135 q 10 149 11 156 l 12 159 q 13 166 17 170 q 21 174 28 174 l 174 174 q 180 174 184 170 q 188 167 187 161 q 185 146 192 138 q 200 130 211 130 q 221 130 226 136 q 232 142 232 151 q 232 164 218 172 q 204 179 174 188 l 147 197 q 103 213 72 246 q 42 278 42 334 q 42 350 43 358 q 53 436 110 482 q 168 528 254 528 q 335 528 382 486 q 430 443 430 372 q 430 364 428 346 q 426 336 412 336 l 271 336 q 264 336 260 340 q 257 344 258 351 l 259 357 l 259 362 q 259 383 241 383 q 230 383 224 374 q 217 364 217 354 q 217 336 234 326 q 251 315 279 306 q 341 286 378 257 q 416 228 416 172 q 416 89 354 40 q 293 -8 196 -8 q 110 -8 60 31 q 10 70 10 135 z"},">":{"x_min":0,"x_max":423,"ha":423,"o":"m 14 48 q 4 48 6 61 l 23 207 q 25 219 37 224 l 240 294 q 246 297 241 300 l 55 370 q 44 375 46 387 l 64 533 q 65 541 70 544 q 75 548 82 544 l 422 382 q 432 377 431 365 l 414 229 q 413 217 401 212 l 22 50 z"},"l":{"x_min":0,"x_max":221,"ha":221,"o":"m 2 15 l 84 685 q 85 692 90 696 q 94 700 100 700 l 254 700 q 260 700 264 696 q 267 692 266 685 l 184 15 q 183 8 179 4 q 175 0 168 0 l 15 0 q 8 0 4 4 q 1 8 2 15 z"},"8":{"x_min":0,"x_max":438,"ha":438,"o":"m 383 358 q 414 336 424 298 q 431 273 431 240 q 431 229 429 207 q 424 161 401 117 q 372 60 318 26 q 264 -8 199 -8 q 134 -8 88 26 q 41 59 26 117 q 20 143 20 171 q 20 195 22 207 q 28 260 48 298 q 67 336 103 357 q 108 360 105 364 q 76 387 64 427 q 57 452 57 483 q 57 493 59 513 q 65 563 85 600 q 114 653 168 684 q 222 715 288 715 q 352 715 398 686 q 445 656 461 600 q 468 575 468 541 q 468 481 439 427 q 418 388 383 365 q 379 361 383 358 z m 252 429 q 263 429 272 440 q 280 451 282 469 l 287 515 q 289 532 284 543 q 279 554 268 554 q 257 554 249 544 q 241 533 239 515 l 233 469 q 231 451 236 440 q 241 429 252 429 z m 235 288 q 224 288 216 277 q 208 266 206 248 l 199 192 q 197 175 202 164 q 208 153 219 153 q 230 153 238 164 q 246 175 248 192 l 255 248 q 257 266 252 277 q 246 288 235 288 z"},"\\":{"x_min":0,"x_max":456,"ha":456,"o":"m 426 12 q 426 0 411 0 l 259 0 q 247 0 244 12 l 90 683 q 89 685 89 688 q 89 700 103 700 l 256 700 q 268 700 271 688 l 425 17 q 426 15 426 12 z"},"e":{"x_min":0,"x_max":441,"ha":441,"o":"m 418 213 l 211 213 q 209 213 208 212 q 206 210 206 208 l 203 185 q 201 171 206 162 q 212 153 222 153 q 239 153 247 178 q 253 192 265 191 l 412 181 q 427 179 424 165 q 408 77 354 34 q 300 -8 202 -8 q 113 -8 65 31 q 17 70 17 142 q 17 150 19 170 l 41 350 q 51 431 112 480 q 172 528 268 528 q 356 528 404 487 q 451 446 451 376 q 451 368 449 350 l 434 228 q 433 221 429 217 q 425 213 418 213 z m 222 335 l 218 310 q 218 305 223 305 l 257 305 q 262 305 262 310 l 265 335 l 266 343 q 266 353 261 360 q 256 367 248 367 q 238 367 231 358 q 224 349 222 335 z"},"b":{"x_min":0,"x_max":446,"ha":446,"o":"m 455 400 q 455 377 452 350 l 430 170 q 420 84 382 38 q 345 -8 275 -8 q 218 -8 195 38 q 193 41 191 41 q 189 41 189 37 l 186 15 q 185 8 180 4 q 176 0 170 0 l 16 0 q 10 0 6 4 q 3 8 4 15 l 86 685 q 87 692 92 696 q 96 700 102 700 l 256 700 q 262 700 266 696 q 269 692 268 685 l 244 483 l 244 482 q 244 481 245 481 q 247 481 256 490 q 288 528 341 528 q 399 528 427 496 q 455 464 455 400 z m 268 342 q 268 353 264 360 q 259 367 252 367 q 242 367 234 358 q 227 350 225 335 l 207 185 q 205 171 210 162 q 215 153 225 153 q 235 153 242 162 q 248 170 250 185 l 268 335 z"},"%":{"x_min":0,"x_max":733,"ha":733,"o":"m 71 519 q 71 569 96 612 q 122 656 164 682 q 207 708 254 708 q 314 708 354 666 q 394 625 394 563 q 394 512 369 468 q 344 423 302 397 q 260 371 212 371 q 151 371 111 414 q 71 456 71 519 z m 107 9 q 107 14 110 18 l 542 689 q 549 700 561 700 l 658 700 q 669 700 669 691 q 669 687 666 682 l 233 11 q 226 0 214 0 l 117 0 q 107 0 107 9 z m 301 550 q 301 577 284 596 q 267 614 242 614 q 211 614 188 589 q 164 564 164 530 q 164 502 181 484 q 198 465 224 465 q 255 465 278 490 q 301 515 301 550 z m 386 140 q 386 190 412 234 q 437 277 480 303 q 522 329 569 329 q 629 329 669 288 q 709 246 709 184 q 709 133 684 88 q 659 44 617 18 q 575 -8 528 -8 q 466 -8 426 34 q 386 77 386 140 z m 616 171 q 616 198 600 216 q 583 235 558 235 q 527 235 504 210 q 480 184 480 149 q 480 122 497 104 q 514 86 539 86 q 570 86 593 111 q 616 136 616 171 z"},"m":{"x_min":0,"x_max":673,"ha":673,"o":"m 680 394 q 680 372 677 348 l 636 15 q 635 8 631 4 q 627 0 620 0 l 467 0 q 460 0 456 4 q 453 8 454 15 l 493 335 q 494 339 494 345 q 494 367 477 367 q 455 367 450 335 l 411 15 q 410 8 406 4 q 402 0 395 0 l 242 0 q 235 0 232 4 q 228 8 229 15 l 268 335 q 269 339 269 345 q 269 367 252 367 q 230 367 225 335 l 186 15 q 185 8 180 4 q 176 0 170 0 l 16 0 q 10 0 6 4 q 3 8 4 15 l 64 505 q 65 512 70 516 q 74 520 80 520 l 234 520 q 240 520 244 516 q 247 512 246 506 l 246 500 q 245 497 247 496 q 249 496 251 498 q 288 528 336 528 q 413 528 441 470 q 441 468 443 468 q 447 468 452 476 q 494 528 561 528 q 680 528 680 394 z"},"#":{"x_min":0,"x_max":615,"ha":615,"o":"m 609 387 l 553 387 q 548 387 546 382 l 531 323 q 531 318 535 318 l 566 318 q 572 318 576 314 q 579 310 578 303 l 563 173 q 560 158 546 158 l 492 158 q 487 158 485 153 l 458 48 q 455 34 441 34 l 287 34 q 273 34 276 50 l 303 153 q 303 158 300 158 l 259 158 q 253 158 253 153 l 225 48 q 222 34 208 34 l 55 34 q 40 34 43 50 l 70 153 q 72 158 67 158 l 34 158 q 27 158 24 162 q 20 166 21 173 l 37 303 q 38 310 42 314 q 47 318 54 318 l 110 318 q 116 318 116 323 l 131 382 q 133 387 128 387 l 97 387 q 90 387 86 391 q 83 395 84 402 l 100 533 q 101 540 106 544 q 110 548 117 548 l 171 548 q 176 548 178 553 l 205 658 q 208 672 222 672 l 375 672 q 390 672 387 656 l 360 553 q 360 548 363 548 l 404 548 q 410 548 410 553 l 438 658 q 441 672 455 672 l 608 672 q 623 672 620 656 l 593 553 q 591 548 596 548 l 629 548 q 636 548 640 544 q 643 540 642 533 l 626 402 q 623 387 609 387 z m 349 323 l 364 382 q 364 387 361 387 l 320 387 q 314 387 314 382 l 299 323 q 297 318 302 318 l 343 318 q 349 318 349 323 z"},",":{"x_min":0,"x_max":226,"ha":226,"o":"m -7 -96 l 37 145 q 39 152 44 156 q 48 160 55 160 l 186 160 q 202 160 197 143 l 113 -98 q 108 -111 96 -111 l 5 -111 q -10 -111 -7 -96 z"},"n":{"x_min":0,"x_max":448,"ha":448,"o":"m 455 394 q 455 372 452 348 l 411 15 q 410 8 406 4 q 402 0 395 0 l 242 0 q 235 0 232 4 q 228 8 229 15 l 268 335 q 269 339 269 345 q 269 367 252 367 q 230 367 225 335 l 186 15 q 185 8 180 4 q 176 0 170 0 l 16 0 q 10 0 6 4 q 3 8 4 15 l 64 505 q 65 512 70 516 q 74 520 80 520 l 234 520 q 240 520 244 516 q 247 512 246 505 l 244 489 q 244 487 246 487 q 250 487 256 494 q 289 528 336 528 q 455 528 455 394 z"},"h":{"x_min":0,"x_max":448,"ha":448,"o":"m 455 394 q 455 372 452 348 l 411 15 q 410 8 406 4 q 402 0 395 0 l 242 0 q 235 0 232 4 q 228 8 229 15 l 268 335 q 269 339 269 345 q 269 367 252 367 q 230 367 225 335 l 186 15 q 185 8 180 4 q 176 0 170 0 l 16 0 q 10 0 6 4 q 3 8 4 15 l 86 685 q 87 692 92 696 q 96 700 102 700 l 256 700 q 262 700 266 696 q 269 692 268 685 l 244 489 q 244 487 246 487 q 250 487 256 494 q 289 528 336 528 q 455 528 455 394 z"},"z":{"x_min":0,"x_max":370,"ha":370,"o":"m -10 15 l 8 160 q 9 170 16 178 l 155 344 q 156 346 155 348 q 154 350 152 350 l 53 350 q 46 350 42 354 q 39 358 40 365 l 57 505 q 58 512 62 516 q 67 520 74 520 l 383 520 q 390 520 394 516 q 397 512 396 505 l 378 360 q 377 352 370 342 l 222 176 q 220 174 221 172 q 222 170 225 170 l 349 170 q 355 170 358 166 q 362 162 361 155 l 344 15 q 343 8 339 4 q 335 0 328 0 l 3 0 q -4 0 -8 4 q -11 8 -10 15 z"},"B":{"x_min":0,"x_max":469,"ha":469,"o":"m 225 0 l 20 0 q 14 0 10 4 q 7 8 8 15 l 90 685 q 91 692 96 696 q 100 700 106 700 l 282 700 q 378 700 432 660 q 485 619 485 537 q 485 527 483 503 q 471 410 410 365 q 404 362 407 359 q 461 313 461 230 q 461 221 459 201 q 448 104 382 52 q 317 0 225 0 z m 254 534 l 241 432 q 241 427 245 427 l 251 427 q 294 427 302 483 l 303 496 q 303 539 265 539 l 259 539 q 254 539 254 534 z m 281 242 q 281 265 272 279 q 263 293 247 293 l 229 293 q 224 293 224 288 l 209 166 q 207 161 213 161 l 230 161 q 252 161 266 182 q 281 203 281 242 z"},"K":{"x_min":0,"x_max":501,"ha":501,"o":"m 8 15 l 90 685 q 91 692 96 696 q 100 700 106 700 l 260 700 q 266 700 270 696 q 273 692 272 685 l 248 484 q 247 480 249 480 q 251 480 253 483 l 361 688 q 367 700 380 700 l 540 700 q 552 700 552 691 q 552 687 549 682 l 376 386 q 375 382 375 380 l 472 17 l 472 13 q 472 0 458 0 l 297 0 q 284 0 281 12 l 230 218 q 230 221 228 222 q 226 222 225 218 l 213 196 l 212 190 l 190 15 q 189 8 184 4 q 180 0 174 0 l 20 0 q 14 0 10 4 q 7 8 8 15 z"},"R":{"x_min":0,"x_max":475,"ha":475,"o":"m 257 13 l 228 265 q 228 269 225 269 q 221 269 221 264 l 190 15 q 189 8 184 4 q 180 0 174 0 l 20 0 q 14 0 10 4 q 7 8 8 15 l 90 685 q 91 692 96 696 q 100 700 106 700 l 325 700 q 405 700 452 649 q 498 598 498 514 q 498 490 496 477 q 489 422 465 378 q 441 335 403 308 q 398 305 400 301 l 443 17 l 443 13 q 443 7 439 4 q 435 0 429 0 l 271 0 q 259 0 257 13 z m 259 539 q 254 539 254 534 l 239 417 q 239 412 244 412 l 257 412 q 281 412 298 433 q 314 454 314 491 q 314 514 303 526 q 292 539 273 539 z"},"T":{"x_min":0,"x_max":484,"ha":484,"o":"m 531 685 l 515 554 q 514 547 510 543 q 506 539 499 539 l 383 539 q 378 539 378 534 l 314 15 q 313 8 309 4 q 305 0 298 0 l 145 0 q 138 0 134 4 q 131 8 132 15 l 196 534 q 196 539 191 539 l 79 539 q 72 539 68 543 q 65 547 66 554 l 82 685 q 83 692 88 696 q 92 700 99 700 l 519 700 q 525 700 528 696 q 532 692 531 685 z"},"P":{"x_min":0,"x_max":467,"ha":467,"o":"m 496 512 q 496 488 494 475 q 486 411 456 362 q 427 313 380 286 q 334 260 278 260 l 223 260 q 218 260 218 255 l 188 15 q 187 8 182 4 q 178 0 172 0 l 18 0 q 12 0 8 4 q 5 8 6 15 l 88 685 q 89 692 94 696 q 98 700 104 700 l 323 700 q 403 700 450 648 q 496 597 496 512 z m 311 471 q 312 477 312 488 q 312 513 301 526 q 290 539 271 539 l 257 539 q 252 539 252 534 l 237 410 q 235 405 241 405 l 254 405 q 276 405 292 422 q 307 438 311 471 z"},"|":{"x_min":0,"x_max":208,"ha":208,"o":"m -15 -65 l 85 745 q 86 752 90 756 q 94 760 101 760 l 254 760 q 261 760 264 756 q 268 752 267 745 l 168 -65 q 165 -80 151 -80 l -2 -80 q -9 -80 -12 -76 q -16 -72 -15 -65 z"},"t":{"x_min":0,"x_max":298,"ha":298,"o":"m 300 390 l 258 390 q 253 390 253 385 l 229 192 q 227 174 234 168 q 241 161 256 162 l 258 162 q 264 162 268 158 q 271 154 270 147 l 254 15 q 253 8 248 4 q 244 0 238 0 l 191 0 q 118 0 81 19 q 44 38 44 93 q 44 108 45 116 l 78 385 q 80 390 74 390 l 47 390 q 40 390 36 394 q 33 398 34 405 l 46 505 q 49 520 63 520 l 90 520 q 94 520 96 525 l 109 633 q 110 640 114 644 q 118 648 125 648 l 271 648 q 277 648 280 644 q 284 640 283 633 l 270 525 q 270 520 274 520 l 316 520 q 323 520 326 516 q 330 512 329 505 l 316 405 q 315 398 311 394 q 307 390 300 390 z"},"M":{"x_min":0,"x_max":549,"ha":549,"o":"m 429 700 l 581 700 q 587 700 590 696 q 594 692 593 685 l 511 15 q 510 8 506 4 q 501 0 495 0 l 341 0 q 335 0 332 4 q 328 8 329 15 l 379 424 q 380 428 378 428 q 375 429 373 426 l 305 328 l 293 310 l 292 310 l 241 426 q 240 429 238 428 q 236 428 235 424 l 185 15 q 184 8 180 4 q 176 0 169 0 l 16 0 q 9 0 6 4 q 2 8 3 15 l 85 685 q 86 692 90 696 q 95 700 101 700 l 253 700 q 265 700 269 689 l 322 559 q 324 555 328 559 l 411 689 q 417 700 429 700 z"},"g":{"x_min":0,"x_max":446,"ha":446,"o":"m 301 520 l 455 520 q 461 520 464 516 q 468 512 467 505 l 410 34 q 401 -41 374 -94 q 346 -147 286 -178 q 225 -210 123 -210 q 86 -210 65 -208 q 50 -208 52 -193 l 68 -60 q 71 -45 86 -46 q 158 -50 187 -32 q 216 -15 225 24 q 226 27 222 28 q 218 29 216 26 q 182 -8 130 -8 q 70 -8 43 25 q 16 58 16 121 q 16 145 19 170 l 41 350 q 52 439 90 484 q 127 528 196 528 q 254 528 276 482 q 278 479 280 479 q 282 479 282 483 l 285 505 q 286 512 290 516 q 295 520 301 520 z m 246 185 l 264 335 q 266 349 261 358 q 256 367 246 367 q 236 367 230 358 q 224 349 222 335 l 203 185 q 201 170 206 162 q 210 153 220 153 q 230 153 237 162 q 244 171 246 185 z"},"j":{"x_min":0,"x_max":221,"ha":221,"o":"m 81 635 q 81 682 111 712 q 141 743 184 743 q 221 743 243 721 q 265 699 265 664 q 265 618 235 586 q 205 555 161 555 q 125 555 103 578 q 81 600 81 635 z m -114 -186 l -98 -57 q -97 -42 -81 -42 q -36 -44 -18 -26 q 1 -9 6 29 l 64 505 q 65 512 70 516 q 74 520 80 520 l 234 520 q 240 520 244 516 q 247 512 246 505 l 188 29 q 177 -60 158 -106 q 139 -152 80 -178 q 21 -204 -100 -201 q -116 -201 -114 -186 z"},"i":{"x_min":0,"x_max":219,"ha":219,"o":"m 77 635 q 77 682 107 712 q 137 743 180 743 q 217 743 239 721 q 261 699 261 664 q 261 618 231 586 q 201 555 157 555 q 121 555 99 578 q 77 600 77 635 z m 2 15 l 62 505 q 63 512 68 516 q 72 520 78 520 l 232 520 q 238 520 242 516 q 245 512 244 505 l 184 15 q 183 8 179 4 q 175 0 168 0 l 15 0 q 8 0 4 4 q 1 8 2 15 z"},"y":{"x_min":0,"x_max":445,"ha":445,"o":"m -15 -184 l 0 -60 q 2 -45 11 -45 q 66 -45 90 -36 q 113 -28 112 0 l 52 503 l 52 505 q 52 512 56 516 q 60 520 67 520 l 232 520 q 245 520 244 506 l 235 282 q 236 283 238 283 q 239 283 240 282 l 285 506 q 288 520 301 520 l 467 518 q 474 518 477 514 q 480 509 478 501 l 294 -2 q 263 -79 233 -119 q 203 -159 148 -179 q 93 -199 -5 -199 l -11 -199 q -17 -199 -15 -184 z"},"@":{"x_min":0,"x_max":737,"ha":737,"o":"m 750 424 q 750 381 738 333 q 713 230 651 173 q 589 116 508 116 q 438 116 406 157 q 403 160 399 156 q 368 118 313 118 q 261 118 240 148 q 218 177 218 217 q 218 227 220 241 q 222 254 224 266 q 227 278 229 289 q 233 303 234 310 q 237 323 242 340 q 246 358 247 362 q 267 430 298 458 q 330 486 381 486 q 412 486 426 462 q 428 459 430 460 q 432 460 432 463 l 432 465 q 436 479 450 479 l 541 479 q 556 479 553 463 l 513 311 q 508 294 508 276 q 508 255 517 245 q 526 235 540 235 q 565 235 584 264 q 602 294 612 337 q 620 374 620 401 q 620 477 575 521 q 530 565 455 565 q 390 565 330 530 q 271 496 227 435 q 183 374 164 297 q 154 257 154 220 q 154 164 178 126 q 201 88 238 70 q 274 52 312 52 q 341 52 365 62 q 389 71 414 88 q 419 91 423 91 q 429 91 434 83 l 466 9 q 467 7 467 2 q 467 -6 458 -12 q 367 -66 276 -66 q 204 -66 148 -34 q 91 -3 58 56 q 26 116 26 196 q 26 246 39 301 q 65 411 132 498 q 199 584 290 632 q 382 681 480 681 q 559 681 620 649 q 682 617 716 559 q 750 501 750 424 z m 376 242 q 378 248 390 302 l 403 355 q 405 363 405 365 q 405 371 402 375 q 398 379 391 379 q 382 379 375 372 q 368 366 366 355 l 351 295 l 337 242 q 336 239 336 234 q 336 217 352 217 q 360 217 366 224 q 373 231 376 242 z"},".":{"x_min":0,"x_max":239,"ha":239,"o":""},"p":{"x_min":0,"x_max":448,"ha":448,"o":"m 457 399 q 457 376 454 350 l 432 170 q 421 81 384 36 q 346 -8 277 -8 q 219 -8 197 39 q 195 42 193 42 q 191 41 191 37 l 166 -165 q 165 -172 160 -176 q 156 -180 150 -180 l -4 -180 q -10 -180 -14 -176 q -17 -172 -16 -165 l 66 505 q 67 512 72 516 q 76 520 82 520 l 236 520 q 242 520 246 516 q 249 512 248 505 l 246 483 l 246 482 q 246 481 247 481 q 249 481 258 490 q 292 528 343 528 q 403 528 430 495 q 457 462 457 399 z m 270 342 q 270 353 266 360 q 261 367 254 367 q 244 367 236 358 q 229 350 227 335 l 209 185 q 207 171 212 162 q 217 153 227 153 q 237 153 244 162 q 250 170 252 185 l 270 335 z"},"X":{"x_min":0,"x_max":488,"ha":488,"o":"m -1 9 l 1 17 l 170 347 q 171 350 170 353 l 83 683 q 82 685 82 688 q 82 700 97 700 l 252 700 q 258 700 262 696 q 266 693 267 687 l 289 548 q 290 545 292 545 q 294 545 295 548 l 352 687 q 357 700 370 700 l 524 700 q 536 700 536 691 l 534 683 l 365 353 q 364 350 365 347 l 452 17 q 453 15 453 12 q 453 0 438 0 l 285 0 q 279 0 275 4 q 271 7 270 13 l 246 151 q 246 155 244 155 q 242 155 241 151 l 183 13 q 178 0 165 0 l 11 0 q -1 0 -1 9 z"},"*":{"x_min":0,"x_max":351,"ha":351,"o":"m 157 412 l 165 469 q 166 472 164 474 q 162 475 160 473 l 106 443 q 101 440 97 440 q 92 440 87 449 l 58 515 q 57 517 57 521 q 57 529 67 535 l 129 567 q 133 570 129 574 l 75 605 q 69 608 69 615 q 69 621 72 625 l 117 694 q 127 707 137 700 l 184 669 q 186 667 188 668 q 190 669 190 672 l 196 730 q 197 737 202 741 q 206 745 213 745 l 284 745 q 290 745 294 741 q 297 737 296 730 l 288 672 q 288 666 294 669 l 347 700 q 350 702 355 702 q 361 702 366 694 l 394 625 q 396 621 396 619 q 396 610 386 605 l 326 574 q 323 573 323 571 q 323 569 325 567 l 377 535 q 383 531 383 524 q 383 520 380 515 l 335 446 q 325 433 315 440 l 269 472 q 267 474 266 473 q 264 472 263 469 l 257 412 q 256 405 252 401 q 248 397 241 397 l 170 397 q 163 397 160 401 q 156 405 157 412 z"},"Y":{"x_min":0,"x_max":493,"ha":493,"o":"m 137 17 l 165 248 q 166 250 165 254 l 82 683 l 82 687 q 82 700 96 700 l 257 700 q 271 700 272 687 l 284 486 q 284 483 286 483 q 289 483 290 486 l 351 687 q 355 700 369 700 l 530 700 q 538 700 540 696 q 543 691 540 683 l 349 254 l 348 248 l 319 17 q 318 10 314 6 q 310 2 303 2 l 150 2 q 143 2 140 6 q 136 10 137 17 z"},"c":{"x_min":0,"x_max":441,"ha":441,"o":"m 17 142 q 17 150 19 170 l 41 350 q 51 431 112 480 q 172 528 268 528 q 356 528 404 487 q 451 446 451 376 q 451 368 449 350 l 447 328 q 446 321 442 316 q 437 312 430 312 l 276 307 q 270 307 266 310 q 262 314 263 321 l 265 335 l 266 343 q 266 353 261 360 q 256 367 248 367 q 238 367 231 358 q 224 349 222 335 l 203 185 q 201 171 206 162 q 212 153 222 153 q 231 153 238 162 q 245 171 247 185 l 249 200 q 250 207 254 211 q 258 215 265 215 l 418 213 q 425 213 428 209 q 432 205 431 198 l 427 170 q 416 85 358 38 q 299 -8 202 -8 q 113 -8 65 31 q 17 70 17 142 z"},"!":{"x_min":0,"x_max":289,"ha":289,"o":"m 83 263 l 117 685 q 119 700 133 700 l 286 700 q 300 700 298 685 l 228 263 q 227 256 222 252 q 218 248 211 248 l 96 248 q 90 248 86 252 q 82 256 83 263 z m 44 82 q 44 128 74 158 q 105 188 148 188 q 185 188 207 166 q 229 144 229 109 q 229 63 199 32 q 169 0 125 0 q 89 0 66 23 q 44 46 44 82 z"},"/":{"x_min":0,"x_max":456,"ha":456,"o":"m -6 9 l -4 17 l 315 688 q 320 700 333 700 l 486 700 q 497 700 497 691 l 495 683 l 176 12 q 171 0 158 0 l 6 0 q -6 0 -6 9 z"},"[":{"x_min":0,"x_max":362,"ha":362,"o":"m -9 -149 l 108 803 q 109 810 114 814 q 118 818 125 818 l 351 818 q 357 818 360 814 q 364 810 363 803 l 347 672 q 346 665 342 661 q 338 657 331 657 l 278 657 q 272 657 272 652 l 192 2 q 192 -3 197 -3 l 250 -3 q 257 -3 260 -7 q 264 -11 263 -18 l 247 -149 q 244 -164 230 -164 l 4 -164 q -3 -164 -6 -160 q -10 -156 -9 -149 z"},"6":{"x_min":0,"x_max":446,"ha":446,"o":"m 447 297 q 447 273 445 260 l 434 171 q 424 87 362 40 q 300 -8 205 -8 q 116 -8 66 35 q 17 78 21 164 q 22 171 22 181 q 22 191 24 204 l 61 524 q 71 609 134 658 q 196 708 290 708 q 372 708 422 666 q 471 624 471 551 q 471 542 469 524 l 464 485 q 463 478 458 474 q 454 470 448 470 l 294 470 q 288 470 284 474 q 281 478 282 485 l 285 511 q 286 525 281 534 q 276 543 269 543 q 259 543 252 534 q 244 525 243 511 l 232 417 q 231 414 233 413 q 235 412 237 414 q 255 428 276 436 q 297 444 318 444 q 379 444 413 405 q 447 366 447 297 z m 243 312 q 232 312 224 303 q 217 294 215 280 l 203 184 q 201 170 207 161 q 213 152 223 152 q 233 152 241 161 q 249 170 251 184 l 262 280 q 264 294 259 303 q 254 312 243 312 z"},"r":{"x_min":0,"x_max":336,"ha":336,"o":"m 368 517 q 376 512 373 498 l 329 341 q 327 333 323 331 q 319 329 311 331 q 302 334 289 334 q 269 334 255 327 q 240 320 230 304 q 220 289 218 273 l 186 16 q 185 9 181 5 q 177 1 170 1 l 17 1 q 10 1 6 5 q 3 9 4 16 l 64 505 q 65 512 70 516 q 74 520 80 520 l 234 520 q 240 520 244 516 q 247 512 246 505 l 243 482 q 243 478 244 478 q 246 477 248 480 q 278 527 330 527 q 353 527 368 517 z"},"2":{"x_min":0,"x_max":449,"ha":449,"o":"m 244 161 l 425 161 q 432 161 436 157 q 439 153 438 146 l 422 15 q 421 8 416 4 q 412 0 405 0 l 13 0 q 6 0 2 4 q -1 8 0 15 l 16 150 q 18 161 26 169 l 100 244 q 193 337 232 385 q 262 423 278 455 q 293 487 293 517 q 293 532 288 540 q 282 547 272 547 q 260 547 252 538 q 243 528 241 512 l 236 470 q 235 463 231 459 q 227 455 220 455 l 65 455 q 58 455 54 459 q 51 463 52 470 l 58 520 q 74 605 141 656 q 208 708 300 708 q 382 708 430 661 q 478 614 478 536 q 478 526 476 504 q 469 448 448 404 q 428 361 386 312 q 343 262 260 185 l 242 167 q 239 165 240 163 q 241 161 244 161 z"},"{":{"x_min":0,"x_max":380,"ha":380,"o":"m 76 -53 q 76 -41 77 -34 l 102 166 q 103 174 103 187 q 103 248 55 255 q 42 257 43 270 l 57 388 q 58 401 73 403 q 132 412 142 491 l 166 688 q 174 748 214 783 q 255 818 318 818 l 418 818 q 424 818 428 814 q 431 810 430 803 l 414 672 q 413 665 409 661 q 405 657 398 657 l 387 657 q 371 657 356 640 q 340 623 338 601 l 321 462 q 309 364 245 332 q 240 329 245 326 q 290 301 290 228 q 290 219 288 195 l 270 53 q 268 31 279 14 q 290 -3 306 -3 l 317 -3 q 324 -3 328 -7 q 331 -11 330 -18 l 313 -149 q 312 -156 308 -160 q 304 -164 297 -164 l 197 -164 q 140 -164 108 -134 q 76 -104 76 -53 z"},"9":{"x_min":0,"x_max":442,"ha":442,"o":"m 200 -8 q 118 -8 68 34 q 19 76 19 149 q 19 158 21 176 l 25 215 q 28 230 42 230 l 195 230 q 202 230 206 226 q 209 222 208 215 l 205 189 l 204 182 q 204 171 209 164 q 214 157 220 157 q 230 157 237 166 q 244 175 246 189 l 258 283 q 258 289 252 286 q 234 272 213 264 q 192 256 171 256 q 110 256 76 295 q 42 334 42 403 q 42 427 44 440 l 55 529 q 65 613 128 660 q 190 708 285 708 q 373 708 422 665 q 472 622 468 536 q 468 517 465 496 l 428 176 q 418 91 356 42 q 293 -8 200 -8 z m 275 420 l 286 516 q 288 530 282 539 q 277 548 266 548 q 256 548 248 539 q 240 530 239 516 l 227 420 q 226 406 231 397 q 236 388 246 388 q 257 388 265 397 q 273 406 275 420 z"}," ":{"x_min":0,"x_max":194,"ha":194,"o":""},"I":{"x_min":0,"x_max":233,"ha":233,"o":"m 8 15 l 90 685 q 91 692 96 696 q 100 700 106 700 l 260 700 q 266 700 270 696 q 273 692 272 685 l 190 15 q 189 8 184 4 q 180 0 174 0 l 20 0 q 14 0 10 4 q 7 8 8 15 z"},"H":{"x_min":0,"x_max":471,"ha":471,"o":"m 345 700 l 498 700 q 505 700 508 696 q 512 692 511 685 l 429 15 q 428 8 424 4 q 419 0 412 0 l 259 0 q 252 0 248 4 q 245 8 246 15 l 277 265 q 277 270 273 270 l 226 270 q 221 270 221 265 l 190 15 q 189 8 184 4 q 180 0 174 0 l 20 0 q 14 0 10 4 q 7 8 8 15 l 90 685 q 91 692 96 696 q 100 700 106 700 l 260 700 q 266 700 270 696 q 273 692 272 685 l 242 436 q 240 431 246 431 l 293 431 q 295 431 296 432 q 298 434 298 436 l 329 685 q 330 692 334 696 q 338 700 345 700 z"},"4":{"x_min":0,"x_max":514,"ha":514,"o":"m 526 322 l 509 182 q 508 175 504 171 q 500 167 493 167 l 463 167 q 459 167 457 162 l 439 15 q 438 8 434 4 q 430 0 423 0 l 270 0 q 263 0 260 4 q 256 8 257 15 l 275 162 q 275 167 271 167 l 23 167 q 17 167 14 171 q 10 175 11 182 l 24 293 q 25 299 29 311 l 193 688 q 198 700 211 700 l 375 700 q 383 700 386 696 q 389 691 386 683 l 244 343 q 241 337 247 337 l 292 337 q 297 337 297 342 l 306 411 q 307 418 311 422 q 315 426 322 426 l 475 426 q 482 426 486 422 q 489 418 488 411 l 479 342 q 479 337 484 337 l 514 337 q 520 337 524 333 q 527 329 526 322 z"},"~":{"x_min":0,"x_max":494,"ha":494,"o":"m 260 205 q 253 210 240 220 q 226 229 216 234 q 206 238 196 238 q 182 238 166 229 q 150 220 137 206 q 131 199 125 199 q 122 199 117 202 l 40 253 q 33 257 33 264 q 33 267 35 273 q 59 327 104 363 q 150 399 198 399 q 218 399 235 392 q 252 386 270 374 q 276 370 290 361 q 303 352 313 348 q 323 343 332 343 q 359 343 383 374 q 389 382 395 382 q 398 382 403 379 l 485 324 q 491 320 491 313 q 491 309 488 304 q 457 253 414 218 q 371 182 326 182 q 307 182 292 188 q 276 194 260 205 z"},"D":{"x_min":0,"x_max":469,"ha":469,"o":"m 8 15 l 90 685 q 91 692 96 696 q 100 700 106 700 l 297 700 q 386 700 438 654 q 491 607 491 529 q 491 520 489 500 l 452 200 q 445 141 412 96 q 380 50 328 25 q 275 0 211 0 l 20 0 q 14 0 10 4 q 7 8 8 15 z m 213 161 l 227 162 q 243 163 256 177 q 268 191 272 213 l 305 488 l 306 499 q 306 518 297 528 q 288 539 273 539 l 259 539 q 254 539 254 534 l 209 166 q 207 161 213 161 z"},"^":{"x_min":0,"x_max":427,"ha":427,"o":"m 41 308 l 198 687 q 203 700 216 700 l 341 700 q 355 700 356 688 l 423 308 l 423 306 q 423 291 408 291 l 287 291 q 274 291 272 304 l 256 484 q 256 488 254 488 q 252 488 251 484 l 191 304 q 186 291 173 291 l 51 291 q 44 291 40 296 q 37 300 41 308 z"},"0":{"x_min":0,"x_max":445,"ha":445,"o":"m 19 171 q 19 182 21 206 l 57 494 q 65 559 96 608 q 128 658 178 685 q 229 712 290 712 q 374 712 424 662 q 473 613 473 529 q 473 518 471 494 l 436 206 q 428 141 396 92 q 364 42 314 15 q 263 -12 201 -12 q 117 -12 68 38 q 19 87 19 171 z m 252 195 l 290 505 l 291 517 q 291 551 270 551 q 259 551 251 538 q 243 526 240 505 l 202 195 l 201 183 q 201 167 206 158 q 211 149 221 149 q 233 149 241 162 q 249 174 252 195 z"},"F":{"x_min":0,"x_max":419,"ha":419,"o":"m 445 539 l 259 539 q 254 539 254 534 l 242 436 q 240 431 246 431 l 343 431 q 350 431 354 427 q 357 423 356 416 l 340 285 q 337 270 323 270 l 226 270 q 221 270 221 265 l 190 15 q 189 8 184 4 q 180 0 174 0 l 20 0 q 14 0 10 4 q 7 8 8 15 l 90 685 q 91 692 96 696 q 100 700 106 700 l 465 700 q 472 700 476 696 q 479 692 478 685 l 462 554 q 461 547 456 543 q 452 539 445 539 z"},"`":{"x_min":0,"x_max":239,"ha":239,"o":""},"k":{"x_min":0,"x_max":465,"ha":465,"o":"m 4 15 l 86 685 q 87 692 92 696 q 96 700 102 700 l 256 700 q 262 700 266 696 q 269 692 268 685 l 234 404 q 233 400 236 400 q 238 400 240 403 l 298 509 q 304 520 316 520 l 473 520 q 485 520 485 512 q 485 510 481 502 l 349 318 q 347 314 348 311 l 431 17 l 431 13 q 431 0 417 0 l 260 0 q 248 0 245 12 l 218 156 q 218 159 216 160 q 213 160 211 156 l 202 139 l 201 133 l 186 15 q 185 8 180 4 q 176 0 170 0 l 16 0 q 10 0 6 4 q 3 8 4 15 z"},"u":{"x_min":0,"x_max":448,"ha":448,"o":"m 303 520 l 457 520 q 463 520 466 516 q 470 512 469 505 l 409 15 q 408 8 404 4 q 400 0 393 0 l 240 0 q 233 0 230 4 q 226 8 227 15 l 228 21 q 228 24 226 25 q 224 26 222 23 q 206 5 185 -2 q 164 -8 137 -8 q 85 -8 50 22 q 16 51 16 114 q 16 124 18 144 l 62 505 q 63 512 68 516 q 72 520 78 520 l 232 520 q 238 520 242 516 q 245 512 244 505 l 205 185 q 204 181 204 175 q 204 153 222 153 q 243 153 248 185 l 287 505 q 288 512 292 516 q 297 520 303 520 z"},"]":{"x_min":0,"x_max":362,"ha":362,"o":"m 279 -164 l 53 -164 q 46 -164 42 -160 q 39 -156 40 -149 l 56 -18 q 57 -11 62 -7 q 66 -3 72 -3 l 126 -3 q 131 -3 131 2 l 211 652 q 211 657 207 657 l 153 657 q 147 657 144 661 q 140 665 141 672 l 157 803 q 158 810 162 814 q 166 818 173 818 l 399 818 q 406 818 410 814 q 413 810 412 803 l 295 -149 q 294 -156 290 -160 q 285 -164 279 -164 z"},"U":{"x_min":0,"x_max":467,"ha":467,"o":"m 27 173 q 27 184 29 208 l 88 685 q 89 692 94 696 q 98 700 104 700 l 258 700 q 264 700 268 696 q 271 692 270 685 l 210 190 q 208 173 214 163 q 220 153 233 153 q 246 153 254 163 q 263 173 265 190 l 326 685 q 327 692 331 696 q 335 700 342 700 l 495 700 q 502 700 506 696 q 509 692 508 685 l 449 208 q 441 144 409 95 q 377 46 326 19 q 275 -8 213 -8 q 127 -8 77 41 q 27 90 27 173 z"},"o":{"x_min":0,"x_max":447,"ha":447,"o":"m 17 142 q 17 150 19 170 l 41 350 q 51 431 112 480 q 173 528 270 528 q 359 528 407 487 q 455 446 455 376 q 455 368 453 350 l 431 170 q 420 85 362 38 q 303 -8 204 -8 q 114 -8 66 31 q 17 70 17 142 z m 251 185 l 269 335 q 270 349 265 358 q 260 367 250 367 q 239 367 232 358 q 224 349 222 335 l 203 185 q 201 171 207 162 q 213 153 223 153 q 233 153 241 162 q 249 171 251 185 z"},"N":{"x_min":0,"x_max":512,"ha":512,"o":"m 388 700 l 539 700 q 546 700 550 696 q 553 692 552 685 l 469 15 q 468 8 464 4 q 460 0 453 0 l 280 0 q 268 0 266 13 l 228 320 q 228 323 226 323 q 224 323 224 320 l 188 15 q 187 8 182 4 q 178 0 172 0 l 20 0 q 14 0 10 4 q 7 8 8 15 l 90 685 q 91 692 96 696 q 100 700 106 700 l 277 700 q 289 700 291 687 l 330 378 q 330 375 332 376 q 334 377 335 379 l 371 685 q 372 692 376 696 q 381 700 388 700 z"},"+":{"x_min":0,"x_max":423,"ha":423,"o":"m 430 361 l 417 251 q 416 244 412 240 q 407 236 400 236 l 294 236 q 290 236 288 231 l 275 121 q 274 114 270 110 q 265 106 258 106 l 152 106 q 145 106 142 110 q 138 114 139 121 l 153 231 q 153 236 148 236 l 42 236 q 35 236 32 240 q 28 244 29 251 l 42 361 q 43 368 48 372 q 52 376 59 376 l 165 376 q 171 376 171 381 l 184 491 q 187 506 201 506 l 308 506 q 314 506 318 502 q 321 498 320 491 l 307 381 q 305 376 311 376 l 418 376 q 424 376 428 372 q 431 368 430 361 z"},"G":{"x_min":0,"x_max":464,"ha":464,"o":"m 22 165 q 22 174 24 196 l 62 505 q 73 598 138 653 q 203 708 299 708 q 386 708 438 661 q 489 614 489 534 q 489 523 487 503 l 483 470 q 480 455 466 455 l 313 455 q 306 455 302 459 q 299 463 300 470 l 305 505 q 307 524 300 536 q 293 547 280 547 q 266 547 256 536 q 246 524 244 505 l 206 195 q 204 176 211 164 q 218 153 231 153 q 245 153 254 164 q 264 176 266 195 l 273 245 q 273 250 268 250 l 260 250 q 253 250 250 254 q 246 258 247 265 l 261 380 q 262 387 266 391 q 271 395 277 395 l 459 395 q 466 395 470 391 q 473 387 472 380 l 449 196 q 438 103 372 48 q 307 -8 211 -8 q 123 -8 72 38 q 22 85 22 165 z"},"q":{"x_min":0,"x_max":448,"ha":448,"o":"m 301 520 l 455 520 q 461 520 464 516 q 468 512 467 505 l 385 -165 q 384 -172 380 -176 q 376 -180 369 -180 l 216 -180 q 209 -180 206 -176 q 202 -172 203 -165 l 228 37 q 228 41 226 42 q 224 42 222 39 q 188 -8 130 -8 q 72 -8 44 24 q 16 57 16 122 q 16 145 19 170 l 41 350 q 52 437 89 482 q 126 528 196 528 q 253 528 276 482 q 278 479 280 479 q 282 479 282 483 l 285 505 q 286 512 290 516 q 295 520 301 520 z m 246 185 l 264 335 q 266 349 261 358 q 256 367 246 367 q 236 367 230 358 q 224 349 222 335 l 203 185 q 201 170 206 162 q 210 153 220 153 q 230 153 237 162 q 244 171 246 185 z"},"d":{"x_min":0,"x_max":446,"ha":446,"o":"m 324 700 l 477 700 q 484 700 488 696 q 491 692 490 685 l 407 15 q 406 8 402 4 q 398 0 391 0 l 238 0 q 231 0 228 4 q 224 8 225 15 l 228 37 q 228 41 226 41 q 224 41 222 38 q 188 -8 130 -8 q 70 -8 43 25 q 16 58 16 121 q 16 145 19 170 l 41 350 q 52 439 90 484 q 127 528 196 528 q 254 528 276 481 q 278 478 280 478 q 282 479 282 483 l 307 685 q 308 692 312 696 q 317 700 324 700 z m 246 185 l 264 335 q 266 349 261 358 q 256 367 246 367 q 236 367 230 358 q 224 349 222 335 l 203 185 q 201 170 206 162 q 210 153 220 153 q 230 153 237 162 q 244 171 246 185 z"},"1":{"x_min":0,"x_max":294,"ha":294,"o":"m 167 700 l 327 700 q 333 700 336 696 q 340 692 339 685 l 257 15 q 256 8 252 4 q 247 0 241 0 l 87 0 q 81 0 78 4 q 74 8 75 15 l 137 524 q 137 529 133 529 l 68 529 q 61 529 58 533 q 54 537 55 544 l 69 660 q 71 672 83 677 l 150 697 q 159 700 167 700 z"},"5":{"x_min":0,"x_max":445,"ha":445,"o":"m 446 297 q 446 273 444 260 l 433 171 q 423 87 361 40 q 299 -8 204 -8 q 117 -8 68 34 q 20 77 20 162 l 21 189 q 23 204 38 204 l 191 204 q 206 204 204 192 l 204 180 q 205 152 223 152 q 235 152 242 161 q 250 170 252 184 l 261 250 q 263 264 257 273 q 251 282 239 282 q 232 282 226 278 q 219 275 216 270 q 212 263 208 260 q 204 257 198 257 l 43 257 q 36 257 32 261 q 29 265 30 272 l 81 685 q 82 692 86 696 q 91 700 98 700 l 482 700 q 488 700 492 696 q 495 692 494 685 l 478 554 q 477 547 473 543 q 469 539 462 539 l 250 539 q 248 539 246 538 q 245 536 245 534 l 231 417 q 230 414 232 413 q 234 412 236 414 q 254 428 275 436 q 296 444 317 444 q 378 444 412 405 q 446 366 446 297 z"}}}
